<?xml version="1.0" encoding="utf-8"?>
<!-- Generator: Adobe Illustrator 24.1.1, SVG Export Plug-In . SVG Version: 6.00 Build 0)  -->
<svg version="1.1" id="Layer_1" xmlns="http://www.w3.org/2000/svg" xmlns:xlink="http://www.w3.org/1999/xlink" x="0px" y="0px"
	 viewBox="0 0 3456 790.47" style="enable-background:new 0 0 3456 790.47;" xml:space="preserve">
<style type="text/css">
	.st0{fill-rule:evenodd;clip-rule:evenodd;fill:#7BC144;}
	.st1{fill-rule:evenodd;clip-rule:evenodd;fill:#58A546;}
	.st2{fill-rule:evenodd;clip-rule:evenodd;fill:#B3D78B;}
	.st3{fill-rule:evenodd;clip-rule:evenodd;fill:#3F8C41;}
	.st4{fill-rule:evenodd;clip-rule:evenodd;fill:#F2EA14;}
	.st5{fill-rule:evenodd;clip-rule:evenodd;}
</style>
<path class="st0" d="M728.98,520.75c-69.57,223.72-242.82,188.26-292.95,183.18c-0.42-11.98,0.25-23.35,1.96-34.15
	c137.75-39.56,198.68-95.42,223.08-146.87C682.5,521.12,705.18,520.4,728.98,520.75z"/>
<path class="st0" d="M406.77,703.8c-200.04,82.79-280.98-90.79-329.17-161.76c29.4-12.73,56.22-20.56,80.81-24.14
	c35.78,90.49,123.58,151.26,224.84,149.92c-0.49,5.32-0.85,10.68-1.06,16.11c4.42-0.98,8.79-1.99,13.08-3
	C399.17,688.44,403,696.08,406.77,703.8z"/>
<path class="st0" d="M459.9,69.98C335.86,187.24,297.88,296.85,298.98,388.16c48.13,25.91,93.04,77.4,112.9,175.99
	c27.09-54.42,71.84-97.46,131.23-123.61C597.07,296.07,541.15,187.62,459.9,69.98z M516.91,278.08c-3.59,2.86-7.19,5.7-10.69,8.66
	c-3.01,2.54-5.14,5.74-5.61,9.71c-0.61,5.28-4.28,7.82-8.57,9.81c-2.78,1.3-5.66,2.37-8.5,3.52c-4.62,1.86-7.67,5.14-10.18,9.45
	c-3.92,6.73-9.35,14.68-19.36,21.62c3.41,3.93,8.23,5.73,12.36,8.46c5.26,3.48,10.63,6.85,11.87,13.79c0.31,1.71,0.35,3.27-0.1,4.95
	c-3.3,12.24-8.73,23.37-16.98,33.11c-4.2,4.98-3.49,6.81,2.92,8.38c2.14,0.52,4.26,0.54,6.37,0.19c1.72-1.6,0.03-3.97,1.61-5.91
	c1.21-0.14,2.69-0.31,4.08-0.49c1.13-1.49,0.6-3.06,0.64-4.54c0.04-1.35-0.35-2.76,0.54-4.04c1.84-0.71,3.56-0.4,5.28,0.79
	c0.87,1.81-1.09,3.79,0.15,5.63c3.26-2.16,4.2-4.8,4.16-12.3c0-1.99-0.12-3.75,2.66-3.7c3.15,0.05,4.67,1.16,3.46,4.56
	c-1.15,3.3-2.09,6.67-3.1,10.03c-0.04,0.11,0.08,0.27,0.29,0.76c3.83-0.45,5.7-3.46,7.75-6.11c2.33-3.01,4.09-6.43,6.85-9.17
	c2.48-2.48,4.31-2.52,6.04,0.91c-5.95,7.13-11.66,14.45-16.68,22.25c3.19,4.96,9.24,2.03,13.11,5.17c-0.87,3.79-4.02,3.23-6.19,2.66
	c-5.47-1.45-9.6-0.35-14.41,3.04c-9.69,6.82-30.71,4.73-39.82-3.1c-4.11-3.5-5.76-7.98-4.65-13.55
	c2.22-11.21,7.57-20.84,14.45-29.81c0.55-0.72,1.09-1.46,1.62-2.2c0.08-0.11,0.05-0.3,0.12-0.83c-2.51-2.52-5.92-3.7-9.4-4.82
	c-4.38-1.39-8.81-2.65-13.08-4.34c-3.25-1.3-6.49-2.92-8.2-6.32c-2.44-4.9-6.82-5.72-11.64-5.39c-4.9,0.34-9.75,1.08-14.64,1.34
	c-2.65,0.15-5.33-0.33-8.16-0.52c1.04,2.65,3.53,3.46,5.48,4.79c6.85,4.64,6.51,12.61-0.79,17.02c-10.8,6.53-25.7,2.29-32.18-9.11
	c-2.11-3.72-4.12-7.53-6.58-11.02c-2.37-3.37-5.57-5.98-9.6-7.26c1.72-4.54,3.38-4.9,6.97-1.88c1.87,1.57,2.85,4.05,5.27,5.02
	c0.4,0.16,0.87,0.12,1.72,0.22c1.87-6.08-0.29-12-0.63-17.94c-0.1-1.68-0.44-3.33-0.45-4.99c-0.04-5.98,0.63-6.41,6.25-4.17
	c0.78,0.31,1.36,0.49,2.13,0.11c10.16-5.05,20.11-1.56,30.03,0.91c7.86,1.96,8.98,1.12,6.81-7.01c-2.11-7.9-3.96-15.66-0.48-23.64
	c2.71-6.18,6.21-11.94,9.49-17.8c1.23-2.18,3.61-4.69,2.02-6.94c-1.6-2.25-4.83-1.05-7.35-0.59c-5.5,1-8.2-0.49-10.7-6.11
	c-3.08-6.92-3.86-14.36-5.05-21.72c-0.87-5.44-1.98-10.79-4.54-15.74c-2.06-4-5.16-6.71-9.32-8.43c-1.77-0.72-4.77-0.33-4.47-3.56
	c0.3-3.01,1.87-5.12,5.03-5.74c0.45-0.08,0.9-0.16,1.51-0.29c3.42,3.85,3.78,10.11,9.4,12.56c2.47-2.67,2.56-5.59,1.25-8.53
	c-1.05-2.36-2.33-4.68-3.92-6.7c-1.72-2.21-3.49-4.09-0.44-6.48c2.82-2.22,6.06-2.81,8.89-0.61c2.97,2.31-0.56,5.03-0.23,7.67
	c0.16,0.14,0.41,0.51,0.57,0.48c11.2-2.2,9.02-0.79,9.06,7.79c0.03,4.73,0.18,9.48-0.07,14.2c-0.18,3.68,1.55,4.39,4.75,4.15
	c3.23-0.25,5.72-2.09,8.47-3.37c2.36-1.11,5.63-2.92,6.86-0.11c1.39,3.21-2.29,4.42-4.88,5.25c-3.34,1.09-6.79,1.86-10.19,2.8
	c-3.57,1.01-5.17,3.12-4.87,7.08c0.79,10.8,6.55,14.6,17.72,11.66c9.22-2.43,15.1-9.06,20.9-15.82c4.46-5.21,8.65-10.68,13.03-15.99
	c1.17-1.41,2.47-2.8,4.6-2.62c7.93,0.65,15.97,0.23,23.68,2.63c6.25,1.94,9.23,5.97,9.53,12.47c0.23,5.36-0.3,10.65-0.87,15.97
	c-0.34,3.25-2.67,5.01-4.73,7.04c-6.6,6.52-7.22,21.51-0.97,27.94c4.97-3.6,3.87-8.79,3.66-13.68c-0.08-1.8-0.41-3.64-0.91-5.39
	c-0.55-1.86-0.57-3.18,1.51-4.08c2.59-1.11,4.9-0.34,6.97,1.01c2.1,1.39,0.44,3.01-0.27,4.39c-2.71,5.22-2.97,10.71-2.25,16.68
	c3.89-0.44,5.57-3.33,7.63-5.65c1.21-1.38,2.07-3.08,3.4-4.32c2.2-2.03,4.05-0.31,5.57,1.1
	C518.11,274.74,518.98,276.43,516.91,278.08z"/>
<path class="st1" d="M543.11,440.54c-21.49,57.58-60.45,120.88-122.2,192.76c-1.75-25.31-4.83-48.28-9.03-69.15
	C438.97,509.73,483.72,466.69,543.11,440.54z"/>
<path class="st2" d="M661.07,522.92c-126.35,10.68-209.18,59.15-223.08,146.87c-13.49,3.87-27.72,7.58-42.73,11.13
	c-2.32-4.46-4.65-8.87-7.04-13.22c11.24-0.37,22.63-1.5,34.13-3.45c-0.26-10.68-0.75-21-1.45-30.95
	c61.76-71.88,100.72-135.18,122.2-192.76c36.5-16.1,78.55-25.8,125.44-27.84C675.97,437.2,682.19,478.41,661.07,522.92z"/>
<path class="st1" d="M395.27,680.92c-4.3,1.01-8.66,2.02-13.08,3c0.22-5.43,0.57-10.79,1.06-16.11c1.66-0.01,3.32-0.05,4.98-0.11
	C390.61,672.05,392.95,676.46,395.27,680.92z"/>
<path class="st1" d="M661.07,522.92c-24.4,51.44-85.33,107.31-223.08,146.87C451.89,582.07,534.72,533.6,661.07,522.92z"/>
<path class="st1" d="M411.88,564.15c-8.76,17.58-15.67,36.36-20.64,56.14c-32.52-38.09-90.95-121.74-92.26-232.13
	C347.11,414.06,392.02,465.56,411.88,564.15z"/>
<path class="st3" d="M420.91,633.3c-2.74,3.21-5.54,6.43-8.38,9.66c0,0-8.7-7.93-21.3-22.67c4.97-19.78,11.88-38.55,20.64-56.14
	C416.08,585.02,419.17,607.99,420.91,633.3z"/>
<path class="st2" d="M391.24,620.28c-3.23,12.86-5.65,26.15-7.22,39.81c-50.88-90.83-116.25-158.22-225.62-142.2
	c-17.37-43.93-22.48-94.86-10.93-149.09c28.25-5.62,92.31-12.5,151.5,19.36C300.29,498.54,358.72,582.2,391.24,620.28z"/>
<path class="st0" d="M422.36,664.25c-11.5,1.95-22.89,3.08-34.13,3.45c-1.38-2.56-2.78-5.1-4.2-7.61
	c1.57-13.65,3.98-26.94,7.22-39.81c12.59,14.75,21.3,22.67,21.3,22.67c2.84-3.23,5.63-6.45,8.38-9.66
	C421.61,643.25,422.1,653.57,422.36,664.25z"/>
<path class="st1" d="M384.03,660.09c-0.29,2.56-0.56,5.13-0.78,7.72c-101.26,1.34-189.06-59.44-224.84-149.92
	C267.77,501.87,333.14,569.26,384.03,660.09z"/>
<path class="st3" d="M388.23,667.7c-1.66,0.05-3.32,0.1-4.98,0.11c0.22-2.59,0.49-5.16,0.78-7.72
	C385.44,662.6,386.85,665.14,388.23,667.7z"/>
<path class="st4" d="M516.91,278.08c-3.59,2.86-7.19,5.7-10.69,8.66c-3.01,2.54-5.14,5.74-5.61,9.71c-0.61,5.28-4.28,7.82-8.57,9.81
	c-2.78,1.3-5.66,2.37-8.5,3.52c-4.62,1.86-7.67,5.14-10.18,9.45c-3.92,6.73-9.35,14.68-19.36,21.62c3.41,3.93,8.23,5.73,12.36,8.46
	c5.26,3.48,10.63,6.85,11.87,13.79c0.31,1.71,0.35,3.27-0.1,4.95c-3.3,12.24-8.73,23.37-16.98,33.11c-4.2,4.98-3.49,6.81,2.92,8.38
	c2.14,0.52,4.26,0.54,6.37,0.19c1.72-1.6,0.03-3.97,1.61-5.91c1.21-0.14,2.69-0.31,4.08-0.49c1.13-1.49,0.6-3.06,0.64-4.54
	c0.04-1.35-0.35-2.76,0.54-4.04c1.84-0.71,3.56-0.4,5.28,0.79c0.87,1.81-1.09,3.79,0.15,5.63c3.26-2.16,4.2-4.8,4.16-12.3
	c0-1.99-0.12-3.75,2.66-3.7c3.15,0.05,4.67,1.16,3.46,4.56c-1.15,3.3-2.09,6.67-3.1,10.03c-0.04,0.11,0.08,0.27,0.29,0.76
	c3.83-0.45,5.7-3.46,7.75-6.11c2.33-3.01,4.09-6.43,6.85-9.17c2.48-2.48,4.31-2.52,6.04,0.91c-5.95,7.13-11.66,14.45-16.68,22.25
	c3.19,4.96,9.24,2.03,13.11,5.17c-0.87,3.79-4.02,3.23-6.19,2.66c-5.47-1.45-9.6-0.35-14.41,3.04c-9.69,6.82-30.71,4.73-39.82-3.1
	c-4.11-3.5-5.76-7.98-4.65-13.55c2.22-11.21,7.57-20.84,14.45-29.81c0.55-0.72,1.09-1.46,1.62-2.2c0.08-0.11,0.05-0.3,0.12-0.83
	c-2.51-2.52-5.92-3.7-9.4-4.82c-4.38-1.39-8.81-2.65-13.08-4.34c-3.25-1.3-6.49-2.92-8.2-6.32c-2.44-4.9-6.82-5.72-11.64-5.39
	c-4.9,0.34-9.75,1.08-14.64,1.34c-2.65,0.15-5.33-0.33-8.16-0.52c1.04,2.65,3.53,3.46,5.48,4.79c6.85,4.64,6.51,12.61-0.79,17.02
	c-10.8,6.53-25.7,2.29-32.18-9.11c-2.11-3.72-4.12-7.53-6.58-11.02c-2.37-3.37-5.57-5.98-9.6-7.26c1.72-4.54,3.38-4.9,6.97-1.88
	c1.87,1.57,2.85,4.05,5.27,5.02c0.4,0.16,0.87,0.12,1.72,0.22c1.87-6.08-0.29-12-0.63-17.94c-0.1-1.68-0.44-3.33-0.45-4.99
	c-0.04-5.98,0.63-6.41,6.25-4.17c0.78,0.31,1.36,0.49,2.13,0.11c10.16-5.05,20.11-1.56,30.03,0.91c7.86,1.96,8.98,1.12,6.81-7.01
	c-2.11-7.9-3.96-15.66-0.48-23.64c2.71-6.18,6.21-11.94,9.49-17.8c1.23-2.18,3.61-4.69,2.02-6.94c-1.6-2.25-4.83-1.05-7.35-0.59
	c-5.5,1-8.2-0.49-10.7-6.11c-3.08-6.92-3.86-14.36-5.05-21.72c-0.87-5.44-1.98-10.79-4.54-15.74c-2.06-4-5.16-6.71-9.32-8.43
	c-1.77-0.72-4.77-0.33-4.47-3.56c0.3-3.01,1.87-5.12,5.03-5.74c0.45-0.08,0.9-0.16,1.51-0.29c3.42,3.85,3.78,10.11,9.4,12.56
	c2.47-2.67,2.56-5.59,1.25-8.53c-1.05-2.36-2.33-4.68-3.92-6.7c-1.72-2.21-3.49-4.09-0.44-6.48c2.82-2.22,6.06-2.81,8.89-0.61
	c2.97,2.31-0.56,5.03-0.23,7.67c0.16,0.14,0.41,0.51,0.57,0.48c11.2-2.2,9.02-0.79,9.06,7.79c0.03,4.73,0.18,9.48-0.07,14.2
	c-0.18,3.68,1.55,4.39,4.75,4.15c3.23-0.25,5.72-2.09,8.47-3.37c2.36-1.11,5.63-2.92,6.86-0.11c1.39,3.21-2.29,4.42-4.88,5.25
	c-3.34,1.09-6.79,1.86-10.19,2.8c-3.57,1.01-5.17,3.12-4.87,7.08c0.79,10.8,6.55,14.6,17.72,11.66c9.22-2.43,15.1-9.06,20.9-15.82
	c4.46-5.21,8.65-10.68,13.03-15.99c1.17-1.41,2.47-2.8,4.6-2.62c7.93,0.65,15.97,0.23,23.68,2.63c6.25,1.94,9.23,5.97,9.53,12.47
	c0.23,5.36-0.3,10.65-0.87,15.97c-0.34,3.25-2.67,5.01-4.73,7.04c-6.6,6.52-7.22,21.51-0.97,27.94c4.97-3.6,3.87-8.79,3.66-13.68
	c-0.08-1.8-0.41-3.64-0.91-5.39c-0.55-1.86-0.57-3.18,1.51-4.08c2.59-1.11,4.9-0.34,6.97,1.01c2.1,1.39,0.44,3.01-0.27,4.39
	c-2.71,5.22-2.97,10.71-2.25,16.68c3.89-0.44,5.57-3.33,7.63-5.65c1.21-1.38,2.07-3.08,3.4-4.32c2.2-2.03,4.05-0.31,5.57,1.1
	C518.11,274.74,518.98,276.43,516.91,278.08z"/>
<g>
	<g>
		<path class="st5" d="M2270.95,153.01c18.42,0,36.83,0,55.27,0c94.45,15.41,185.66,34.1,289.63,40.01
			c26.69,77.49-82.34,90.32-142.92,66.7c-9.04,24.63-14.24,53.09-19.06,81.93c15.1,3.27,32.64,4.28,51.46,1.91
			c11.22-1.42,27.21-8.65,32.39-5.72c11.83,6.7,8.51,32.79,3.82,43.83c-14.35,33.62-61.27,33.61-99.11,26.67
			c-21.7,101.45-53.44,252.89-184.83,236.29c-50.24-6.36-81.87-61.59-59.07-116.24c12.16-29.14,41.26-56.66,66.69-78.12
			c27.29-23.04,58.66-41.54,83.85-60.98c-24.28-15.57-17.2-64.29,20.95-59.07c5.34-35.31,21.55-59.76,34.31-87.65
			c-34-6.6-88.24-28.83-133.39-24.77c-11.05,1-31.37,9.01-36.21,20.97c-12.05,29.77,7.64,54.35,20.95,66.68
			c7.21,6.68,25.21,15.98,26.68,24.77c4.01,23.7-32.7,38.33-57.16,32.39c-29.42-7.14-51.81-44.29-55.25-76.22
			C2162.02,212.66,2207.82,163.63,2270.95,153.01z M2261.41,560.78c0.39,14.74,8.2,28.47,20.97,28.58
			c19.97,0.16,32.78-35.12,40.03-57.17c9.75-29.73,14.58-57.38,19.06-80.03c-0.11-1.17-0.3-2.25-1.92-1.9
			C2317.54,481.48,2260.22,513.13,2261.41,560.78z"/>
		<path class="st5" d="M1714.55,372.14c13.42-6.44,26.51-21.97,43.83-32.39c23.15-13.94,76.02-35.52,83.84,5.72
			c4.76,25.07-9.58,55.94-19.05,80.04c-10.07,25.57-23.71,48.89-20.96,74.31c34.98-1.79,52.69-40.33,76.21-60.98
			c4.98-17.61,9.4-34.65,26.67-36.2c14.83-1.32,33.74,14.87,36.21,32.4c2.38,16.78-5.87,26.4-13.33,40.01
			c7.42,18.62,15.1,36.99,40.01,38.11c13.47-9.67,6.2-26.04,3.82-36.21c-2.78-11.87-7.59-24.72-11.44-36.2
			c-7.14-21.26-18.79-47.72-17.15-76.22c2.08-36.31,34.02-67.39,70.51-72.41c19.79-2.73,50.78-2.12,62.87,15.25
			c9.33,13.36,7.43,40.98-3.8,53.35c-14.43-1.92-36.32-12.06-47.65,0c-0.63,44.86,33.33,83.67,30.5,127.67
			c-3.3,51.39-50.48,87.53-108.62,85.74c-43.32-1.32-66.42-26.02-74.31-66.68c-28.74,17.52-68.86,74.47-121.96,64.78
			c-22.1-4.04-31.38-26.54-28.58-57.17c3.38-36.99,24.93-69.07,28.58-104.79c-17.07-10.56-36.37,5.78-45.73,15.24
			c-7.72,40.56-7.83,88.72-11.43,133.38c-43.57,19.67-85.71-14.2-80.04-66.7c2.32-21.48,16.53-33.85,19.06-51.44
			c12.96-90.41,15.96-205.71,59.07-259.15c19.92-24.69,87.11-45.67,91.47,7.62c2.43,29.8-12.83,52.44-22.87,72.41
			c-5.23,10.41-9.44,22.04-15.24,32.39c-5.67,10.12-15.2,19.08-19.06,28.58C1719.7,338.05,1721.69,354.61,1714.55,372.14z"/>
		<path class="st5" d="M796.1,547.45c0-10.79,0-21.6,0-32.4c3.86-22.6,15.81-55.6,40.01-66.68c9.53-4.37,27.38-9.63,40.01-3.81
			c6.67,3.05,6.81,7.58,9.53,13.32c2.21,4.68,2.03,11.77,7.62,17.15c42.3,19.32,91.58,31.64,146.72,38.11
			c20.49-59.93,36.9-128.44,47.64-196.26c3.55-22.43,12.42-48.35,0-70.5c-31.35,5.01-41.83,34.75-53.35,59.07
			c-12.11,25.56-22.5,54.7-28.58,83.85c-41.39,13.97-65.25-17.84-59.07-66.69c9.15-72.38,84.87-157.15,163.87-161.97
			c57.65-3.52,79.99,31.85,81.94,81.93c1.8,46.14-9.38,94.82-19.05,137.2c-10.17,44.57-26.37,84.05-34.3,120.05
			c18.91-10.93,35.75-23.96,51.45-38.11c3.38-53.68,36-115.86,76.21-141c23.18-14.49,67.91-23.37,74.32,9.52
			c32.09-18.4,50.87,10.45,53.35,41.92c2.58,32.56-11.87,69.49-17.14,87.65c8.95,4.19,20.91,0.89,28.58-1.91
			c11.23-20.91,8.71-54.48,36.2-55.25c19.45-0.54,34.62,18.48,34.29,40.02c-0.18,12.25-13.52,22.84-13.34,34.29
			c0.15,9.11,11.94,21.5,15.24,24.78c6.49,6.42,16.5,15.09,28.58,9.53c11.49-56.15-35.66-92.6-28.58-152.44
			c4.09-34.6,35.21-62.13,72.41-66.69c20.44-2.51,46.5-1.01,59.07,15.25c9.87,12.76,11.59,41.75-3.81,53.35
			c-12.76-2.21-31.79-10.69-43.83-1.91c-9.34,22.76,6.24,41.18,13.34,59.07c7.63,19.22,15.91,42.97,15.24,66.7
			c-1.52,54.94-50.61,93.54-112.42,89.55c-41.79-2.68-61.97-28.83-72.4-66.68c-11.26,8.48-40.8,11.24-53.35,1.9
			c-17.72,35.85-79.05,73.43-127.67,49.54c-17.45-8.58-25.93-24.94-34.3-45.74c-21.51,20.42-50.04,33.81-78.13,47.64
			c-31.36,62.86-85.3,118.86-181.02,110.52C856.3,664.76,811.38,617.26,796.1,547.45z M1266.75,475.03
			c6.64,44.54,51.28,16.09,57.17-11.43c-11.19-33.78-4.24-89.47,3.81-114.32C1300.82,365.63,1258.74,421.3,1266.75,475.03z
			 M977.12,600.8c20.22-3.97,38.18-25.62,41.93-43.82c-49.88-1.58-89.58-13.31-127.67-26.68
			C900.06,566.87,929.64,610.13,977.12,600.8z"/>
		<path class="st5" d="M1910.82,189.21c34.47-5.57,59.44,20.23,55.25,62.88c-2.68,27.25-25.79,57.55-40.01,70.5
			c-5.96,5.43-22.95,18.66-34.29,20.96c-20.42,4.14-34.43-2.41-32.4-19.06c2.1-17.23,44.59-25.54,45.73-51.45
			c0.88-20.05-23.17-24.68-26.67-32.39C1866.79,215.07,1891.42,192.34,1910.82,189.21z"/>
		<path class="st5" d="M3385.67,328.32c0,2.54,0,5.08,0,7.62c-4.19,8.51-3.49,21.94-13.35,24.77c-11.86-3.81-31.78-9.61-43.83-1.91
			c-4.26,46.31,24.05,67.88,28.57,108.62c12.22,109.9-145.24,144.46-177.21,57.17c-12.35,5.67-17.49,13.09-26.66,20.96
			c-8.89,7.61-22.47,13.35-26.68,22.86c-1.75,3.94-1.2,12.83-1.89,17.15c-6.56,40.14-20.08,69.73-49.56,87.64
			c-48.87,29.7-127.57,5.86-146.72-38.11c-13.27-30.47,9.78-78.92,38.1-72.39c5.62,1.29,9.67,9.52,15.24,17.14
			c15.58,21.27,27.99,41.86,57.18,45.73c20.39-22.8,13.03-73.33,20.95-108.62c-14.33,9.87-27.63,34.65-55.27,36.21
			c-28.96,1.64-48.12-17.09-55.24-45.72c-14.79,5.85-42.33,12.89-57.18,1.9c-18.32,37.56-88.13,76.79-135.27,45.73
			c-11.08-7.28-16.38-19.6-24.79-32.38c-20.65,15.94-46.24,45.26-80.04,49.53c-22.25,2.81-41.92-0.58-53.36-17.15
			c-16.3-23.66-4.16-58.85,5.73-85.74c6.51-17.71,25.27-43.72,0-55.26c-8.39,0.88-11.64,11.03-15.26,17.15
			c-8.72,14.76-27.57,55.61-43.81,53.36c-8.56-1.19-13.71-7.1-15.24-13.35c-7.23-29.32,35.49-49.85,36.19-76.22
			c-27.54-42.33,43-125.44,91.47-118.14c14.27,2.16,25.33,16.14,22.86,28.58c-3.32,16.67-34.03,17.17-32.39,36.21
			c21.08,11.84,55.55,8.71,62.87,30.49c12.42,36.93-54.19,89.59-34.3,129.57c20.98-1.56,44.77-16.09,51.45-34.3
			c2.47-6.72,0.66-16.06,1.91-22.86c8.04-43.39,32.25-90.33,60.98-114.34c19.43-16.24,77.99-42.16,87.66,0
			c36.16-19.91,55.11,14.25,55.27,51.45c0.09,29.75-14.19,60.86-17.17,78.12c10.41,4.74,23.14,0.32,30.5-3.82
			c9.09-24.97,18.45-54.51,36.19-76.21c19.34-23.64,50.87-49.83,83.85-49.54c5.21,0.05,12.38,5.47,13.33,0
			c4.08-16.24,1.49-39.16,5.73-55.26c40.54-12.58,74.72,10.1,80.04,36.2c4.83,23.9-12.71,62.15-19.06,95.28
			c-6.85,35.67-10.91,69.54-15.26,99.09c14.21-11.85,33.25-17.01,41.92-38.11c9.94-24.18,4.57-64.22,36.21-64.79
			c18.79-0.33,34.74,19.22,34.3,40.02c-0.3,13.88-13.99,23.67-13.33,34.29c1.16,19.24,20.97,36.24,40.01,36.21
			c10.92-9.58,4.43-24.66,1.91-36.21c-7.68-35.03-29.4-72.36-28.59-108.6c0.61-27.11,17.18-51.23,36.21-62.89
			C3308.9,288.26,3385.14,280.79,3385.67,328.32z M2806.39,450.27c-2.03,19.88-0.64,46.85,17.15,49.54
			c17.48,2.65,35.93-20.51,38.12-36.21c1.96-14.08-5.71-32.5-5.71-49.54c0-24.43,8.87-50.77,9.51-62.88
			C2837.56,365.73,2810.57,409.61,2806.39,450.27z M3033.15,486.48c12.24,5.59,22.97-2.6,30.48-7.62
			c4.82-33.95,10.73-76.9,13.33-106.71C3044.99,390.77,3018.96,440.06,3033.15,486.48z"/>
	</g>
</g>
</svg>
